<?xml version="1.0" encoding="UTF-8"?>
<svg width="27px" height="22px" viewBox="0 0 27 22" version="1.1" xmlns="http://www.w3.org/2000/svg" xmlns:xlink="http://www.w3.org/1999/xlink">
    <!-- Generator: Sketch 43.2 (39069) - http://www.bohemiancoding.com/sketch -->
    <title>Fill 1</title>
    <desc>Created with Sketch.</desc>
    <defs></defs>
    <g id="Throne" stroke="none" stroke-width="1" fill="none" fill-rule="evenodd">
        <g id="Throne-PAGE-INDEX-+-STORY" transform="translate(-372.000000, -5183.000000)" fill="#FFD700">
            <g id="Clans" transform="translate(0.000000, 5004.000000)">
                <g id="First" transform="translate(351.000000, 60.000000)">
                    <g id="1_st" transform="translate(0.000000, 108.000000)">
                        <path d="M47.1560007,24.4261508 C47.206019,24.5752612 47.1560007,24.7492234 47.0562142,24.8734821 C46.9311683,25.0225925 45.7557377,26.2900311 44.5300387,26.2900311 C44.1801605,26.2900311 43.8800506,26.1906241 43.6299589,26.016662 C43.4796539,26.2651793 43.3048398,26.5136967 43.1297757,26.7622141 C44.0298554,26.9113245 44.8551578,27.433211 44.9802036,27.5326179 C45.1052494,27.6320249 45.2052861,27.7811353 45.2052861,27.9302457 C45.2052861,28.1042079 45.1305087,28.2533183 45.0054629,28.3527252 C44.8551578,28.4523807 43.7550048,29.222536 42.6796108,29.222536 C42.5045467,29.222536 42.3542416,29.1979328 42.1794275,29.1728325 C41.8540583,29.0736741 41.5789576,28.8994634 41.3538751,28.6509461 C40.4035269,29.3964982 39.328133,29.9434849 38.1279433,30.2911607 C37.9776382,30.3408642 37.8275833,30.3657159 37.6525191,30.4154194 C37.0272901,30.5893815 36.3520427,30.7633437 35.7520729,31.0367128 C36.1272103,31.3846371 36.4520793,31.8073652 36.6521526,32.3290031 C36.7524394,32.5775205 36.6273936,32.8757413 36.3520427,32.9751483 C36.3022745,33 36.2269969,33 36.1772287,33 C35.9769053,33 35.776832,32.8757413 35.7018045,32.6771759 C35.5267403,32.2047444 35.2016212,31.8568201 34.8014746,31.5588478 C34.4013281,31.8568201 34.0762089,32.2047444 33.9011448,32.6771759 C33.8261173,32.8757413 33.6262941,33 33.4259707,33 C33.3762025,33 33.3009249,33 33.2511567,32.9751483 C33.0010651,32.8757413 32.85076,32.6023722 32.9507967,32.3290031 C33.15087,31.8073652 33.4759891,31.3846371 33.8511265,31.0367128 C33.2258974,30.7633437 32.5506501,30.5893815 31.9504302,30.4154194 C31.8003752,30.3657159 31.6255612,30.3408642 31.4752561,30.2911607 C30.3248346,29.9183846 29.2496908,29.3467947 28.2990925,28.6012426 C28.0740101,28.84976 27.7989093,29.0485738 27.4737902,29.1231291 C27.298726,29.1728325 27.1486711,29.1728325 26.9736069,29.1728325 C25.898213,29.1728325 24.7728007,28.4024287 24.6477549,28.3030217 C24.522709,28.2038633 24.4476816,28.0545044 24.4476816,27.8805422 C24.4476816,27.7068286 24.522709,27.5574696 24.672764,27.4829144 C24.7978098,27.4083592 25.6233623,26.861621 26.523442,26.7127591 C26.3483779,26.4642417 26.1733137,26.2403276 26.0232588,25.967207 C25.7731671,26.1409206 25.4983165,26.2157244 25.1729473,26.2403276 C23.89748,26.2403276 22.7473086,24.9731375 22.5970036,24.8237786 C22.497217,24.6995199 22.4469486,24.5255578 22.497217,24.3764473 C22.5469852,24.2275854 22.6470219,24.0782265 22.7970769,24.028523 C22.9471318,23.9790681 24.047535,23.5811918 25.0228923,23.7305507 C24.9478648,23.4820333 24.8978465,23.233516 24.8478281,22.9849986 C24.672764,23.0344535 24.49795,23.084157 24.3226357,23.084157 C24.1725808,23.084157 24.0225258,23.0593053 23.8474617,23.0096018 C22.6470219,22.6616775 21.9467653,21.0463146 21.871988,20.8475007 C21.7967104,20.6983903 21.8217195,20.5244281 21.9217562,20.3753177 C22.0217928,20.2262073 22.1718478,20.1516521 22.3219028,20.1516521 C22.497217,20.1516521 23.7724342,20.1268003 24.672764,20.6486868 C24.672764,20.350466 24.6977732,20.0522451 24.7480416,19.7540243 C24.2976266,19.7043208 23.9224892,19.4806552 23.6723975,19.1575826 C22.8971135,18.1883649 23.2474919,16.4487433 23.2722509,16.2499294 C23.2972601,16.100819 23.4223059,15.9517086 23.5723609,15.9020051 C23.7224159,15.8274499 23.89748,15.8523016 24.0225258,15.9517086 C24.1475716,16.0262638 24.8978465,16.5232985 25.3980297,17.2439989 C25.5230755,16.9209263 25.6731305,16.6227055 25.8231855,16.3244846 C25.448048,16.100819 25.1979564,15.7777464 25.0979198,15.3801186 C24.7728007,14.1872352 25.7484081,12.7209828 25.8734539,12.5470206 C25.9732404,12.4227619 26.1235455,12.323355 26.2733504,12.323355 C26.4234054,12.323355 26.5984695,12.3979102 26.673497,12.5470206 C26.7487746,12.6464276 27.1986894,13.3174245 27.3987627,14.0878283 C27.5738268,13.9138661 27.749141,13.739904 27.9489642,13.5659418 C27.8741868,13.168314 27.9239551,12.795538 28.1242785,12.4724654 C28.7242483,11.4038407 30.4748896,11.0559164 30.6749629,11.0062129 C30.8250179,10.9813612 31.0003321,11.0310647 31.1253779,11.1553234 C31.2504237,11.279582 31.300192,11.4286925 31.2751828,11.6026546 C31.2504237,11.8014685 30.9000454,13.5410901 29.7996422,14.1375318 C29.5495506,14.2866422 29.299459,14.3363457 28.9995991,14.3363457 C28.8745533,14.3363457 28.7495075,14.3114939 28.6244617,14.2866422 C26.7735336,15.9020051 25.6233623,18.4368822 25.6233623,20.9966111 C25.6233623,24.7989269 28.1490375,28.1787631 31.8003752,29.222536 C31.9504302,29.2722395 32.1004851,29.2970912 32.2507902,29.3467947 C33.0508333,29.5707088 34.0014316,29.8192262 34.8264838,30.266309 C35.6517862,29.8192262 36.6021343,29.5456086 37.4024275,29.3467947 C37.5527326,29.2970912 37.7025374,29.2722395 37.8525924,29.222536 C41.4789209,28.2038633 44.0298554,24.8237786 44.0298554,20.9966111 C44.0298554,18.4368822 42.8796841,15.8771533 41.028756,14.2866422 C40.9037102,14.3114939 40.7786644,14.3363457 40.6536186,14.3363457 C40.3787679,14.3363457 40.103417,14.2617905 39.8533254,14.1375318 C38.7779314,13.5410901 38.4280532,11.8014685 38.3780349,11.6026546 C38.3527757,11.4535442 38.402794,11.279582 38.5278398,11.1553234 C38.6528856,11.0310647 38.8031907,10.9813612 38.9780047,11.0062129 C39.1783281,11.0310647 40.9289694,11.378989 41.5289392,12.4724654 C41.7290125,12.8203897 41.7790309,13.1931658 41.7040034,13.5659418 C41.9040767,13.739904 42.0791408,13.8890144 42.254455,14.0878283 C42.4542782,13.3174245 42.9044432,12.6464276 42.9794706,12.5470206 C43.0795073,12.4227619 43.2295623,12.323355 43.3798673,12.323355 C43.5296722,12.323355 43.7047363,12.3979102 43.7797638,12.5470206 C43.9048096,12.7209828 44.8804171,14.1872352 44.5552979,15.3801186 C44.4302521,15.7777464 44.1801605,16.100819 43.8297822,16.3244846 C43.9798371,16.6227055 44.1301422,16.9209263 44.255188,17.2439989 C44.7553712,16.5232985 45.5304052,16.0262638 45.6306919,15.9517086 C45.7804968,15.8523016 45.9308019,15.8523016 46.0806067,15.9020051 C46.2306617,15.9765603 46.3306984,16.100819 46.3809668,16.2499294 C46.4309851,16.4487433 46.7561042,18.1883649 45.9805701,19.1575826 C45.7054693,19.4806552 45.3303319,19.7043208 44.9051761,19.7540243 C44.9551944,20.0522451 44.9802036,20.350466 44.9802036,20.6486868 C45.8807835,20.1268003 47.1560007,20.1516521 47.3310648,20.1516521 C47.5063791,20.1516521 47.6561839,20.251059 47.7312114,20.3753177 C47.8312481,20.5244281 47.8312481,20.6735385 47.7812298,20.8475007 C47.7062023,21.0214629 46.9809366,22.6368258 45.805756,23.0096018 C45.655451,23.0593053 45.5056461,23.084157 45.3303319,23.084157 C45.1552677,23.084157 44.9802036,23.0593053 44.8053896,22.9849986 C44.7553712,23.233516 44.6803438,23.4820333 44.6303254,23.7305507 C45.6054327,23.6308952 46.7058358,24.0036713 46.8558908,24.0782265 C47.0061958,24.12793 47.1312416,24.2770404 47.1560007,24.4261508 Z" id="Fill-1"></path>
                    </g>
                </g>
            </g>
        </g>
    </g>
</svg>