<?xml version="1.0" encoding="UTF-8"?>
<svg width="25px" height="22px" viewBox="0 0 25 22" version="1.1" xmlns="http://www.w3.org/2000/svg" xmlns:xlink="http://www.w3.org/1999/xlink">
    <!-- Generator: Sketch 43.2 (39069) - http://www.bohemiancoding.com/sketch -->
    <title>Fill 1</title>
    <desc>Created with Sketch.</desc>
    <defs></defs>
    <g id="Throne" stroke="none" stroke-width="1" fill="none" fill-rule="evenodd">
        <g id="Throne-PAGE-INDEX-+-STORY" transform="translate(-372.000000, -5224.000000)" fill="#D4D4D4">
            <g id="Clans" transform="translate(0.000000, 5004.000000)">
                <g id="First" transform="translate(351.000000, 60.000000)">
                    <g id="2_st" transform="translate(0.000000, 149.000000)">
                        <path d="M45.0781605,24.0782265 C45.2227629,24.12793 45.3430644,24.2770404 45.3668841,24.4261508 C45.4150048,24.5752612 45.3668841,24.7492234 45.2708835,24.8734821 C45.150582,25.0225925 44.0197477,26.2900311 42.8405521,26.2900311 L42.7924315,26.2900311 C42.5039485,26.2900311 42.2152248,26.1906241 41.9746218,26.016662 C41.8300193,26.2651793 41.6618378,26.5136967 41.4934157,26.7622141 C42.359346,26.9113245 43.1533361,27.433211 43.2736376,27.5326179 C43.3939391,27.6320249 43.4901804,27.7811353 43.4901804,27.9302457 C43.4901804,28.1042079 43.41824,28.2533183 43.2979385,28.3527252 C43.1533361,28.4523807 42.0949233,29.222536 41.0603302,29.222536 C40.891908,29.222536 40.7473056,29.1979328 40.5791241,29.1728325 C40.2660995,29.0736741 40.0014361,28.8994634 39.7848934,28.6509461 C38.8706018,29.3964982 37.8360087,29.9434849 36.6813547,30.2911607 C36.5367522,30.3408642 36.3923904,30.3657159 36.2239683,30.4154194 C35.6224606,30.5893815 34.9728324,30.7633437 34.3956257,31.0367128 C34.7565303,31.3846371 35.0690736,31.8073652 35.2615561,32.3290031 C35.3580379,32.5775205 35.2377364,32.8757413 34.9728324,32.9751483 C34.9249524,33 34.8525309,33 34.8046509,33 C34.6119278,33 34.4194454,32.8757413 34.3472645,32.6771759 C34.1788423,32.2047444 33.8660584,31.8568201 33.4810935,31.5588478 C33.0961286,31.8568201 32.7833447,32.2047444 32.6149225,32.6771759 C32.5427416,32.8757413 32.3504998,33 32.1577767,33 C32.1098967,33 32.0374752,33 31.9895952,32.9751483 C31.7489921,32.8757413 31.6043897,32.6023722 31.7006309,32.3290031 C31.8931134,31.8073652 32.2058973,31.3846371 32.5668019,31.0367128 C31.9652943,30.7633437 31.315666,30.5893815 30.7382187,30.4154194 C30.5938569,30.3657159 30.4256754,30.3408642 30.2810729,30.2911607 C29.1742989,29.9183846 28.1399464,29.3467947 27.2254142,28.6012426 C27.0088715,28.84976 26.7442081,29.0485738 26.4314241,29.1231291 C26.263002,29.1728325 26.1186402,29.1728325 25.950218,29.1728325 C24.9156249,29.1728325 23.8329112,28.4024287 23.7126097,28.3030217 C23.5923082,28.2038633 23.5201272,28.0545044 23.5201272,27.8805422 C23.5201272,27.7068286 23.5923082,27.5574696 23.73667,27.4829144 C23.8569715,27.4083592 24.6512022,26.861621 25.5171326,26.7127591 C25.3487104,26.4642417 25.1802883,26.2403276 25.0359265,25.967207 C24.7953234,26.1409206 24.5309007,26.2157244 24.2178761,26.2403276 L24.1699961,26.2403276 C22.9908005,26.2403276 21.8842671,24.9731375 21.7396647,24.8237786 C21.6436641,24.6995199 21.5953028,24.5255578 21.6436641,24.3764473 C21.6915441,24.2275854 21.7877853,24.0782265 21.9321471,24.028523 C22.0765089,23.9790681 23.1351624,23.5811918 24.0735143,23.7305507 C24.0013333,23.4820333 23.9532127,23.233516 23.9050921,22.9849986 C23.73667,23.0344535 23.5684885,23.084157 23.3998257,23.084157 C23.2554639,23.084157 23.1111021,23.0593053 22.9426799,23.0096018 C21.7877853,22.6616775 21.1140967,21.0463146 21.0421564,20.8475007 C20.9697349,20.6983903 20.9937952,20.5244281 21.0900364,20.3753177 C21.1862777,20.2262073 21.3306395,20.1516521 21.4750013,20.1516521 C21.6436641,20.1516521 22.870499,20.1268003 23.73667,20.6486868 C23.73667,20.350466 23.7607303,20.0522451 23.8090915,19.7540243 C23.3757654,19.7043208 23.0148608,19.4806552 22.7742578,19.1575826 C22.0283883,18.1883649 22.3654732,16.4487433 22.3892929,16.2499294 C22.4133532,16.100819 22.5336547,15.9517086 22.6780166,15.9020051 C22.8223784,15.8274499 22.9908005,15.8523016 23.1111021,15.9517086 C23.2314036,16.0262638 23.9532127,16.5232985 24.4344188,17.2439989 C24.5547204,16.9209263 24.6990822,16.6227055 24.843444,16.3244846 C24.4825394,16.100819 24.2419364,15.7777464 24.1456952,15.3801186 C23.8329112,14.1872352 24.7715037,12.7209828 24.8918052,12.5470206 C24.9878058,12.4227619 25.1324083,12.323355 25.2765295,12.323355 C25.4208913,12.323355 25.5893135,12.3979102 25.6614944,12.5470206 C25.7339159,12.6464276 26.1667608,13.3174245 26.3592432,14.0878283 C26.5276654,13.9138661 26.6963281,13.739904 26.8885699,13.5659418 C26.8166296,13.168314 26.8645096,12.795538 27.0572327,12.4724654 C27.6344394,11.4038407 29.3186607,11.0559164 29.5111432,11.0062129 C29.655505,10.9813612 29.8241677,11.0310647 29.9444693,11.1553234 C30.0647708,11.279582 30.1126508,11.4286925 30.0885905,11.6026546 C30.0647708,11.8014685 29.7276859,13.5410901 28.6690325,14.1375318 C28.4284295,14.2866422 28.1878264,14.3363457 27.8993433,14.3363457 C27.7790418,14.3363457 27.6587403,14.3114939 27.5384388,14.2866422 C25.7577356,15.9020051 24.6512022,18.4368822 24.6512022,20.9966111 C24.6512022,24.7989269 27.0810524,28.1787631 30.5938569,29.222536 C30.7382187,29.2722395 30.8825806,29.2970912 31.027183,29.3467947 C31.7968721,29.5707088 32.7114043,29.8192262 33.5051538,30.266309 C34.2991439,29.8192262 35.2134355,29.5456086 35.9833652,29.3467947 C36.1279676,29.2970912 36.2720889,29.2722395 36.4164507,29.222536 C39.9051949,28.2038633 42.359346,24.8237786 42.359346,20.9966111 C42.359346,18.4368822 41.2528126,15.8771533 39.4721094,14.2866422 C39.3518079,14.3114939 39.2315064,14.3363457 39.1112049,14.3363457 C38.8467821,14.3363457 38.5818781,14.2617905 38.3412751,14.1375318 C37.306682,13.5410901 36.9700783,11.8014685 36.9219577,11.6026546 C36.8976568,11.4535442 36.9457774,11.279582 37.0660789,11.1553234 C37.1863805,11.0310647 37.3309829,10.9813612 37.4991644,11.0062129 C37.6918875,11.0310647 39.3761088,11.378989 39.9533155,12.4724654 C40.145798,12.8203897 40.1939186,13.1931658 40.1217377,13.5659418 C40.3142201,13.739904 40.4826422,13.8890144 40.651305,14.0878283 C40.8435468,13.3174245 41.2766323,12.6464276 41.3488132,12.5470206 C41.4450544,12.4227619 41.5894163,12.323355 41.7340187,12.323355 C41.8781399,12.323355 42.0465621,12.3979102 42.118743,12.5470206 C42.2390445,12.7209828 43.177637,14.1872352 42.864853,15.3801186 C42.7445515,15.7777464 42.5039485,16.100819 42.1668636,16.3244846 C42.3112254,16.6227055 42.4558279,16.9209263 42.5761294,17.2439989 C43.0573355,16.5232985 43.8029643,16.0262638 43.8994461,15.9517086 C44.0435674,15.8523016 44.1881698,15.8523016 44.332291,15.9020051 C44.4766529,15.9765603 44.5728941,16.100819 44.6212553,16.2499294 C44.6693759,16.4487433 44.9821599,18.1883649 44.2360498,19.1575826 C43.9713865,19.4806552 43.6104819,19.7043208 43.2014567,19.7540243 C43.2495773,20.0522451 43.2736376,20.350466 43.2736376,20.6486868 C44.1400492,20.1268003 45.3668841,20.1516521 45.5353063,20.1516521 C45.703969,20.1516521 45.8480902,20.251059 45.9202712,20.3753177 C46.0165124,20.5244281 46.0165124,20.6735385 45.9683918,20.8475007 C45.8962109,21.0214629 45.198462,22.6368258 44.0678683,23.0096018 C43.9232659,23.0593053 43.7791446,23.084157 43.6104819,23.084157 C43.4420598,23.084157 43.2736376,23.0593053 43.1054561,22.9849986 C43.0573355,23.233516 42.9851546,23.4820333 42.937034,23.7305507 C43.8751452,23.6308952 44.9337987,24.0036713 45.0781605,24.0782265" id="Fill-1"></path>
                    </g>
                </g>
            </g>
        </g>
    </g>
</svg>